<?xml version="1.0" encoding="utf-8" ?>
<svg baseProfile="tiny" height="400" version="1.2" width="800" xmlns="http://www.w3.org/2000/svg" xmlns:ev="http://www.w3.org/2001/xml-events" xmlns:xlink="http://www.w3.org/1999/xlink"><defs /><rect fill="#1f1f27" height="400" width="800" x="0" y="0" /><line opacity="0.129" stroke="#ffffff" stroke-width="0.5" x1="541" x2="681" y1="7" y2="147" /><line opacity="0.0853" stroke="#ffffff" stroke-width="0.3" x1="660" x2="853" y1="111" y2="304" /><line opacity="0.1238" stroke="#ffffff" stroke-width="0.5" x1="347" x2="539" y1="291" y2="483" /><line opacity="0.0592" stroke="#ffffff" stroke-width="0.5" x1="614" x2="737" y1="355" y2="478" /><line opacity="0.0777" stroke="#ffffff" stroke-width="0.7" x1="167" x2="284" y1="360" y2="477" /><line opacity="0.1097" stroke="#ffffff" stroke-width="0.7" x1="857" x2="1031" y1="287" y2="461" /><line opacity="0.116" stroke="#ffffff" stroke-width="0.7" x1="336" x2="456" y1="113" y2="233" /><line opacity="0.0513" stroke="#ffffff" stroke-width="0.7" x1="63" x2="185" y1="91" y2="213" /><line opacity="0.0833" stroke="#ffffff" stroke-width="0.7" x1="470" x2="722" y1="126" y2="378" /><line opacity="0.0661" stroke="#ffffff" stroke-width="0.7" x1="890" x2="1001" y1="346" y2="457" /><line opacity="0.0731" stroke="#ffffff" stroke-width="0.5" x1="519" x2="686" y1="235" y2="402" /><line opacity="0.0828" stroke="#ffffff" stroke-width="0.7" x1="710" x2="886" y1="233" y2="409" /><line opacity="0.0941" stroke="#ffffff" stroke-width="0.3" x1="140" x2="339" y1="340" y2="539" /><line opacity="0.1031" stroke="#ffffff" stroke-width="0.3" x1="-13" x2="133" y1="63" y2="209" /><line opacity="0.0567" stroke="#ffffff" stroke-width="0.5" x1="351" x2="518" y1="128" y2="295" /><line opacity="0.0675" stroke="#ffffff" stroke-width="0.7" x1="577" x2="739" y1="5" y2="167" /><line opacity="0.1268" stroke="#ffffff" stroke-width="0.3" x1="570" x2="847" y1="255" y2="532" /><line opacity="0.0749" stroke="#ffffff" stroke-width="0.3" x1="194" x2="346" y1="282" y2="434" /><line opacity="0.1418" stroke="#ffffff" stroke-width="0.3" x1="310" x2="440" y1="320" y2="450" /><line opacity="0.064" stroke="#ffffff" stroke-width="0.3" x1="670" x2="780" y1="302" y2="412" /><line opacity="0.0577" stroke="#ffffff" stroke-width="0.5" x1="294" x2="500" y1="126" y2="332" /><line opacity="0.1389" stroke="#ffffff" stroke-width="0.5" x1="781" x2="916" y1="91" y2="226" /><line opacity="0.0683" stroke="#ffffff" stroke-width="0.5" x1="-97" x2="8" y1="352" y2="457" /><line opacity="0.1376" stroke="#ffffff" stroke-width="0.5" x1="-54" x2="84" y1="104" y2="242" /><line opacity="0.091" stroke="#ffffff" stroke-width="0.7" x1="-54" x2="51" y1="12" y2="117" /><line opacity="0.1028" stroke="#ffffff" stroke-width="0.3" x1="528" x2="696" y1="210" y2="378" /><line opacity="0.1223" stroke="#ffffff" stroke-width="0.3" x1="799" x2="929" y1="215" y2="345" /><line opacity="0.0544" stroke="#ffffff" stroke-width="0.7" x1="656" x2="868" y1="193" y2="405" /><line opacity="0.0969" stroke="#ffffff" stroke-width="0.5" x1="245" x2="539" y1="389" y2="683" /><line opacity="0.1432" stroke="#ffffff" stroke-width="0.3" x1="381" x2="594" y1="320" y2="533" /><line opacity="0.0521" stroke="#ffffff" stroke-width="0.5" x1="359" x2="630" y1="88" y2="359" /><line opacity="0.0514" stroke="#ffffff" stroke-width="0.5" x1="850" x2="986" y1="29" y2="165" /><line opacity="0.0768" stroke="#ffffff" stroke-width="0.5" x1="695" x2="923" y1="23" y2="251" /><line opacity="0.1313" stroke="#ffffff" stroke-width="0.3" x1="45" x2="305" y1="98" y2="358" /><line opacity="0.0954" stroke="#ffffff" stroke-width="0.7" x1="574" x2="722" y1="253" y2="401" /><line opacity="0.1423" stroke="#ffffff" stroke-width="0.3" x1="68" x2="197" y1="98" y2="227" /><line opacity="0.0782" stroke="#ffffff" stroke-width="0.7" x1="853" x2="997" y1="241" y2="385" /><line opacity="0.1383" stroke="#ffffff" stroke-width="0.5" x1="609" x2="739" y1="42" y2="172" /><line opacity="0.1385" stroke="#ffffff" stroke-width="0.7" x1="395" x2="676" y1="112" y2="393" /><line opacity="0.0933" stroke="#ffffff" stroke-width="0.7" x1="-82" x2="194" y1="283" y2="559" /><line opacity="0.1058" stroke="#ffffff" stroke-width="0.3" x1="75" x2="193" y1="388" y2="506" /><line opacity="0.066" stroke="#ffffff" stroke-width="0.7" x1="195" x2="341" y1="297" y2="443" /><line opacity="0.0724" stroke="#ffffff" stroke-width="0.5" x1="883" x2="1106" y1="302" y2="525" /><line opacity="0.0855" stroke="#ffffff" stroke-width="0.3" x1="629" x2="922" y1="111" y2="404" /><line opacity="0.1054" stroke="#ffffff" stroke-width="0.7" x1="125" x2="300" y1="68" y2="243" /><line opacity="0.0956" stroke="#ffffff" stroke-width="0.5" x1="147" x2="330" y1="176" y2="359" /><line opacity="0.1056" stroke="#ffffff" stroke-width="0.5" x1="682" x2="928" y1="111" y2="357" /><line opacity="0.1106" stroke="#ffffff" stroke-width="0.3" x1="591" x2="808" y1="63" y2="280" /><line opacity="0.1414" stroke="#ffffff" stroke-width="0.3" x1="476" x2="734" y1="199" y2="457" /><line opacity="0.0905" stroke="#ffffff" stroke-width="0.3" x1="460" x2="675" y1="180" y2="395" /><line opacity="0.0564" stroke="#ffffff" stroke-width="0.7" x1="472" x2="761" y1="124" y2="413" /><line opacity="0.1429" stroke="#ffffff" stroke-width="0.7" x1="394" x2="626" y1="126" y2="358" /><line opacity="0.0606" stroke="#ffffff" stroke-width="0.7" x1="343" x2="474" y1="330" y2="461" /><line opacity="0.0634" stroke="#ffffff" stroke-width="0.3" x1="343" x2="605" y1="73" y2="335" /><line opacity="0.0972" stroke="#ffffff" stroke-width="0.5" x1="289" x2="579" y1="144" y2="434" /><line opacity="0.0966" stroke="#ffffff" stroke-width="0.5" x1="898" x2="1067" y1="207" y2="376" /><line opacity="0.098" stroke="#ffffff" stroke-width="0.5" x1="524" x2="793" y1="20" y2="289" /><line opacity="0.1239" stroke="#ffffff" stroke-width="0.7" x1="450" x2="656" y1="182" y2="388" /><line opacity="0.1448" stroke="#ffffff" stroke-width="0.3" x1="69" x2="330" y1="39" y2="300" /><line opacity="0.1469" stroke="#ffffff" stroke-width="0.3" x1="590" x2="723" y1="208" y2="341" /><line opacity="0.1086" stroke="#ffffff" stroke-width="0.7" x1="405" x2="650" y1="34" y2="279" /><line opacity="0.149" stroke="#ffffff" stroke-width="0.5" x1="548" x2="716" y1="366" y2="534" /><line opacity="0.0525" stroke="#ffffff" stroke-width="0.5" x1="6" x2="250" y1="328" y2="572" /><line opacity="0.1254" stroke="#ffffff" stroke-width="0.7" x1="625" x2="763" y1="17" y2="155" /><line opacity="0.0642" stroke="#ffffff" stroke-width="0.7" x1="261" x2="379" y1="239" y2="357" /><line opacity="0.0648" stroke="#ffffff" stroke-width="0.5" x1="0" x2="294" y1="371" y2="665" /><line opacity="0.088" stroke="#ffffff" stroke-width="0.3" x1="644" x2="938" y1="309" y2="603" /><line opacity="0.1338" stroke="#ffffff" stroke-width="0.7" x1="291" x2="558" y1="165" y2="432" /><line opacity="0.0616" stroke="#ffffff" stroke-width="0.3" x1="853" x2="1103" y1="22" y2="272" /><line opacity="0.0549" stroke="#ffffff" stroke-width="0.3" x1="586" x2="860" y1="150" y2="424" /><line opacity="0.1094" stroke="#ffffff" stroke-width="0.5" x1="823" x2="989" y1="344" y2="510" /><line opacity="0.1028" stroke="#ffffff" stroke-width="0.5" x1="149" x2="310" y1="144" y2="305" /><line opacity="0.0722" stroke="#ffffff" stroke-width="0.7" x1="163" x2="461" y1="195" y2="493" /><line opacity="0.1021" stroke="#ffffff" stroke-width="0.7" x1="593" x2="798" y1="212" y2="417" /><line opacity="0.1122" stroke="#ffffff" stroke-width="0.3" x1="313" x2="528" y1="151" y2="366" /><line opacity="0.0895" stroke="#ffffff" stroke-width="0.7" x1="155" x2="376" y1="306" y2="527" /><line opacity="0.0675" stroke="#ffffff" stroke-width="0.5" x1="90" x2="280" y1="233" y2="423" /><line opacity="0.0953" stroke="#ffffff" stroke-width="0.7" x1="156" x2="357" y1="97" y2="298" /><line opacity="0.0853" stroke="#ffffff" stroke-width="0.5" x1="763" x2="1005" y1="377" y2="619" /><line opacity="0.1053" stroke="#ffffff" stroke-width="0.3" x1="318" x2="453" y1="5" y2="140" /><line opacity="0.076" stroke="#ffffff" stroke-width="0.3" x1="244" x2="535" y1="150" y2="441" /><line opacity="0.0562" stroke="#ffffff" stroke-width="0.3" x1="876" x2="1017" y1="175" y2="316" /><line opacity="0.0997" stroke="#ffffff" stroke-width="0.5" x1="102" x2="218" y1="68" y2="184" /><line opacity="0.0511" stroke="#ffffff" stroke-width="0.7" x1="172" x2="466" y1="316" y2="610" /><line opacity="0.1241" stroke="#ffffff" stroke-width="0.7" x1="8" x2="267" y1="65" y2="324" /><line opacity="0.1156" stroke="#ffffff" stroke-width="0.3" x1="16" x2="165" y1="150" y2="299" /><line opacity="0.1159" stroke="#ffffff" stroke-width="0.3" x1="430" x2="665" y1="252" y2="487" /><line opacity="0.0701" stroke="#ffffff" stroke-width="0.3" x1="73" x2="255" y1="103" y2="285" /><line opacity="0.1022" stroke="#ffffff" stroke-width="0.7" x1="390" x2="565" y1="166" y2="341" /><line opacity="0.1066" stroke="#ffffff" stroke-width="0.5" x1="875" x2="1067" y1="11" y2="203" /><line opacity="0.0701" stroke="#ffffff" stroke-width="0.5" x1="181" x2="315" y1="263" y2="397" /><line opacity="0.1222" stroke="#ffffff" stroke-width="0.7" x1="-56" x2="228" y1="26" y2="310" /><line opacity="0.1111" stroke="#ffffff" stroke-width="0.5" x1="24" x2="277" y1="4" y2="257" /><line opacity="0.1396" stroke="#ffffff" stroke-width="0.5" x1="858" x2="1065" y1="240" y2="447" /><line opacity="0.1152" stroke="#ffffff" stroke-width="0.5" x1="516" x2="770" y1="280" y2="534" /><line opacity="0.1047" stroke="#ffffff" stroke-width="0.7" x1="712" x2="855" y1="3" y2="146" /><line opacity="0.0977" stroke="#ffffff" stroke-width="0.5" x1="768" x2="1030" y1="76" y2="338" /><line opacity="0.0792" stroke="#ffffff" stroke-width="0.5" x1="339" x2="577" y1="167" y2="405" /><line opacity="0.1021" stroke="#ffffff" stroke-width="0.3" x1="797" x2="1007" y1="46" y2="256" /><line opacity="0.0691" stroke="#ffffff" stroke-width="0.5" x1="23" x2="221" y1="399" y2="597" /><line opacity="0.0595" stroke="#ffffff" stroke-width="0.5" x1="16" x2="127" y1="28" y2="139" /><line opacity="0.0709" stroke="#ffffff" stroke-width="0.7" x1="467" x2="580" y1="326" y2="439" /><line opacity="0.0666" stroke="#ffffff" stroke-width="0.7" x1="170" x2="381" y1="280" y2="491" /><line opacity="0.0711" stroke="#ffffff" stroke-width="0.5" x1="858" x2="1053" y1="125" y2="320" /><line opacity="0.0685" stroke="#ffffff" stroke-width="0.5" x1="21" x2="204" y1="346" y2="529" /><line opacity="0.0624" stroke="#ffffff" stroke-width="0.7" x1="17" x2="300" y1="370" y2="653" /><line opacity="0.0815" stroke="#ffffff" stroke-width="0.7" x1="696" x2="862" y1="26" y2="192" /><line opacity="0.0634" stroke="#ffffff" stroke-width="0.7" x1="793" x2="1015" y1="84" y2="306" /><line opacity="0.1246" stroke="#ffffff" stroke-width="0.5" x1="75" x2="241" y1="78" y2="244" /><line opacity="0.1183" stroke="#ffffff" stroke-width="0.3" x1="380" x2="591" y1="135" y2="346" /><line opacity="0.1471" stroke="#ffffff" stroke-width="0.5" x1="119" x2="286" y1="97" y2="264" /><line opacity="0.1149" stroke="#ffffff" stroke-width="0.3" x1="-49" x2="90" y1="161" y2="300" /><line opacity="0.1096" stroke="#ffffff" stroke-width="0.7" x1="614" x2="719" y1="146" y2="251" /><line opacity="0.0624" stroke="#ffffff" stroke-width="0.3" x1="296" x2="408" y1="172" y2="284" /><line opacity="0.0882" stroke="#ffffff" stroke-width="0.5" x1="-98" x2="123" y1="60" y2="281" /><line opacity="0.1421" stroke="#ffffff" stroke-width="0.7" x1="652" x2="873" y1="317" y2="538" /><line opacity="0.0572" stroke="#ffffff" stroke-width="0.5" x1="332" x2="595" y1="78" y2="341" /><line opacity="0.1225" stroke="#ffffff" stroke-width="0.3" x1="539" x2="742" y1="227" y2="430" /><line opacity="0.0644" stroke="#ffffff" stroke-width="0.7" x1="130" x2="355" y1="346" y2="571" /><line opacity="0.1384" stroke="#ffffff" stroke-width="0.7" x1="805" x2="1076" y1="69" y2="340" /><line opacity="0.0812" stroke="#ffffff" stroke-width="0.3" x1="856" x2="1082" y1="54" y2="280" /><line opacity="0.0993" stroke="#ffffff" stroke-width="0.7" x1="255" x2="547" y1="271" y2="563" /><line opacity="0.0785" stroke="#ffffff" stroke-width="0.7" x1="44" x2="210" y1="130" y2="296" /><line opacity="0.12" stroke="#ffffff" stroke-width="0.7" x1="690" x2="862" y1="30" y2="202" /><line opacity="0.0706" stroke="#ffffff" stroke-width="0.3" x1="815" x2="995" y1="192" y2="372" /><line opacity="0.0766" stroke="#ffffff" stroke-width="0.7" x1="469" x2="758" y1="101" y2="390" /><line opacity="0.1111" stroke="#ffffff" stroke-width="0.5" x1="864" x2="1112" y1="345" y2="593" /><line opacity="0.0676" stroke="#ffffff" stroke-width="0.5" x1="820" x2="1055" y1="154" y2="389" /><line opacity="0.1032" stroke="#ffffff" stroke-width="0.3" x1="197" x2="364" y1="380" y2="547" /><line opacity="0.0748" stroke="#ffffff" stroke-width="0.7" x1="519" x2="666" y1="361" y2="508" /><line opacity="0.0744" stroke="#ffffff" stroke-width="0.5" x1="-38" x2="261" y1="162" y2="461" /><line opacity="0.1476" stroke="#ffffff" stroke-width="0.7" x1="672" x2="839" y1="370" y2="537" /><line opacity="0.1023" stroke="#ffffff" stroke-width="0.5" x1="355" x2="596" y1="157" y2="398" /><line opacity="0.0797" stroke="#ffffff" stroke-width="0.5" x1="403" x2="530" y1="318" y2="445" /><line opacity="0.1276" stroke="#ffffff" stroke-width="0.5" x1="41" x2="175" y1="169" y2="303" /><line opacity="0.1151" stroke="#ffffff" stroke-width="0.3" x1="838" x2="949" y1="101" y2="212" /><line opacity="0.1073" stroke="#ffffff" stroke-width="0.7" x1="495" x2="782" y1="59" y2="346" /><line opacity="0.0982" stroke="#ffffff" stroke-width="0.3" x1="271" x2="547" y1="61" y2="337" /><line opacity="0.0979" stroke="#ffffff" stroke-width="0.7" x1="-31" x2="78" y1="254" y2="363" /><line opacity="0.0665" stroke="#ffffff" stroke-width="0.5" x1="643" x2="851" y1="236" y2="444" /><line opacity="0.069" stroke="#ffffff" stroke-width="0.3" x1="890" x2="1064" y1="315" y2="489" /><line opacity="0.0742" stroke="#ffffff" stroke-width="0.5" x1="622" x2="788" y1="339" y2="505" /><line opacity="0.1394" stroke="#ffffff" stroke-width="0.7" x1="289" x2="433" y1="198" y2="342" /><line opacity="0.1152" stroke="#ffffff" stroke-width="0.7" x1="66" x2="231" y1="267" y2="432" /><line opacity="0.0983" stroke="#ffffff" stroke-width="0.7" x1="153" x2="303" y1="10" y2="160" /><line opacity="0.0887" stroke="#ffffff" stroke-width="0.3" x1="100" x2="234" y1="150" y2="284" /><line opacity="0.1067" stroke="#ffffff" stroke-width="0.7" x1="820" x2="996" y1="380" y2="556" /><line opacity="0.0718" stroke="#ffffff" stroke-width="0.5" x1="276" x2="537" y1="373" y2="634" /><line opacity="0.1229" stroke="#ffffff" stroke-width="0.7" x1="-40" x2="232" y1="92" y2="364" /><line opacity="0.1142" stroke="#ffffff" stroke-width="0.7" x1="265" x2="373" y1="242" y2="350" /></svg>